<?xml version="1.0" encoding="UTF-8"?>
<svg version="1.1" xmlns="http://www.w3.org/2000/svg" width="644" height="646">
<path d="M0 0 C212.52 0 425.04 0 644 0 C644 213.18 644 426.36 644 646 C431.48 646 218.96 646 0 646 C0 432.82 0 219.64 0 0 Z " fill="#676E81" transform="translate(0,0)"/>
<path d="M0 0 C0.7425 0.825 1.485 1.65 2.25 2.5 C5.38086182 3.7038315 7.42292151 3.42088809 10.6015625 2.50390625 C11.44428711 2.27453369 12.28701172 2.04516113 13.15527344 1.80883789 C14.0527832 1.56254639 14.95029297 1.31625488 15.875 1.0625 C31.2504936 -2.87743688 47.30175657 -3.84029549 61.69921875 3.83984375 C71.11779448 9.96985092 78.14437797 19.05151653 80.8828125 30.0390625 C82.34910959 39.86637276 80.70034041 48.59931918 76.25 57.5 C75.59 57.5 74.93 57.5 74.25 57.5 C74.188125 58.386875 74.12625 59.27375 74.0625 60.1875 C73.05444918 64.29724564 71.34852344 65.69657403 68.25 68.5 C67.693125 69.263125 67.13625 70.02625 66.5625 70.8125 C66.129375 71.369375 65.69625 71.92625 65.25 72.5 C64.59 72.5 63.93 72.5 63.25 72.5 C63.146875 73.098125 63.04375 73.69625 62.9375 74.3125 C62.15088144 76.81537724 61.11454169 77.71314755 59.25 79.5 C58.92 80.49 58.59 81.48 58.25 82.5 C56.1875 83.1875 56.1875 83.1875 54.25 83.5 C54.25 84.49 54.25 85.48 54.25 86.5 C53.59 87.16 52.93 87.82 52.25 88.5 C51.59 89.49 50.93 90.48 50.25 91.5 C49.59 91.5 48.93 91.5 48.25 91.5 C47.59 93.15 46.93 94.8 46.25 96.5 C44.93 96.17 43.61 95.84 42.25 95.5 C42.25 96.16 42.25 96.82 42.25 97.5 C42.91 97.83 43.57 98.16 44.25 98.5 C43.610625 98.603125 42.97125 98.70625 42.3125 98.8125 C41.631875 99.039375 40.95125 99.26625 40.25 99.5 C39.92 100.49 39.59 101.48 39.25 102.5 C38.610625 102.809375 37.97125 103.11875 37.3125 103.4375 C34.78338585 104.74037699 34.25904508 105.89330021 33.25 108.5 C33.25 108.83 33.25 109.16 33.25 109.5 C32.07649402 112.01465568 30.79857231 114.17714154 29.25 116.5 C28.59 116.5 27.93 116.5 27.25 116.5 C27.25 117.16 27.25 117.82 27.25 118.5 C28.31476563 118.47679687 29.37953125 118.45359375 30.4765625 118.4296875 C48.02108769 118.15927125 65.29289816 119.62604769 79.25 131.5 C87.29830427 139.78158845 93.14976275 150.01957287 93.5625 161.75 C93.27976931 176.02789961 80.30782042 186.97492357 70.734375 196.27734375 C63.51541999 203.09182375 55.55508591 209.07877972 47.25 214.5 C46.425 215.04140625 45.6 215.5828125 44.75 216.140625 C38.02361024 220.47073841 31.16830236 224.541578 24.17724609 228.42773438 C22.86267689 229.15912378 21.55059532 229.89499793 20.24072266 230.63476562 C12.37018247 235.06415452 4.5199151 239.02740162 -4 242.0625 C-4.70294189 242.31402832 -5.40588379 242.56555664 -6.13012695 242.82470703 C-9.75058985 244.0477948 -12.92182705 244.91117413 -16.75 244.5 C-18.25 243.3125 -18.25 243.3125 -19.75 241.5 C-20.575 240.675 -21.4 239.85 -22.25 239 C-24.75 236.5 -24.75 236.5 -26.25 234.6875 C-28.3946571 232.98964646 -30.09994106 233.28513036 -32.75 233.5 C-33.08 232.51 -33.41 231.52 -33.75 230.5 C-34.74 231.49 -35.73 232.48 -36.75 233.5 C-35.76 233.83 -34.77 234.16 -33.75 234.5 C-34.74 235.16 -35.73 235.82 -36.75 236.5 C-37.00447149 239.49306949 -37.07622812 242.26180001 -37 245.25 C-36.98904297 246.09731689 -36.97808594 246.94463379 -36.96679688 247.81762695 C-36.84118825 255.06674625 -36.40962326 262.27948115 -35.75 269.5 C-38.58625813 270.65904779 -39.68684892 270.52282362 -42.625 269.4609375 C-43.65625 268.93757813 -44.6875 268.41421875 -45.75 267.875 C-46.78125 267.36710937 -47.8125 266.85921875 -48.875 266.3359375 C-53.0076991 263.69684976 -56.03547603 260.11602607 -57.75 255.5 C-58.19691964 252.83389317 -58.4806665 250.19333496 -58.75 247.5 C-58.09 247.5 -57.43 247.5 -56.75 247.5 C-57.08 246.84 -57.41 246.18 -57.75 245.5 C-59.8979894 245.94812018 -62.04336561 246.40878348 -64.1875 246.875 C-65.38246094 247.13023437 -66.57742188 247.38546875 -67.80859375 247.6484375 C-68.77925781 247.92945313 -69.74992187 248.21046875 -70.75 248.5 C-71.08 249.16 -71.41 249.82 -71.75 250.5 C-72.41 250.5 -73.07 250.5 -73.75 250.5 C-73.75 249.51 -73.75 248.52 -73.75 247.5 C-74.4925 247.83 -75.235 248.16 -76 248.5 C-78.75 249.5 -78.75 249.5 -82.75 249.5 C-84.45884005 251.12339805 -86.12446717 252.79319053 -87.75 254.5 C-90.0625 255.8125 -90.0625 255.8125 -91.75 256.5 C-91.75 255.18 -91.75 253.86 -91.75 252.5 C-92.41 252.5 -93.07 252.5 -93.75 252.5 C-93.75 253.16 -93.75 253.82 -93.75 254.5 C-94.74 254.5 -95.73 254.5 -96.75 254.5 C-96.75 255.49 -96.75 256.48 -96.75 257.5 C-98.76822917 257.46744792 -100.78645833 257.43489583 -102.8046875 257.40234375 C-104.83185404 257.37350758 -104.83185404 257.37350758 -106.75 258.5 C-115.70147818 259.76732397 -122.26463493 257.32367531 -129.75 252.5 C-134.74523594 248.6752895 -138.95214138 244.51859889 -142.75 239.5 C-143.51570313 238.76652344 -144.28140625 238.03304687 -145.0703125 237.27734375 C-151.73621179 230.3685181 -157.79547356 220.99118037 -159.75 211.5 C-160.06904297 210.00146484 -160.06904297 210.00146484 -160.39453125 208.47265625 C-162.30761369 197.69768224 -162.30175326 186.20255863 -159.9140625 175.4765625 C-158.29629325 168.07431884 -158.29629325 168.07431884 -160.5546875 161.06640625 C-161.74114418 159.37646256 -162.98771078 157.76518835 -164.28637695 156.16015625 C-168.26489616 151.21309525 -169.3622339 146.74178328 -169.75 140.5 C-164.84433279 137.10376886 -160.43372918 136.79613187 -154.61328125 136.22265625 C-151.66718574 135.80402982 -151.66718574 135.80402982 -150.39453125 133.63671875 C-149.58375748 130.94888086 -149.12899249 128.27927825 -148.75 125.5 C-148.09 125.5 -147.43 125.5 -146.75 125.5 C-146.54246094 124.37207031 -146.33492187 123.24414062 -146.12109375 122.08203125 C-143.85383681 110.31455043 -140.55035339 99.16284648 -136.57543945 87.86572266 C-135.78106211 85.5890245 -135.0145159 83.30508629 -134.2578125 81.015625 C-132.34436735 75.2429871 -130.30307672 69.51566823 -128.26757812 63.78515625 C-126.6007473 59.05702176 -125.06752508 54.33748013 -123.75 49.5 C-125.73 49.5 -127.71 49.5 -129.75 49.5 C-127.10261084 48.0393715 -125.85551666 47.5 -122.75 47.5 C-122.75 46.84 -122.75 46.18 -122.75 45.5 C-129.68 47.975 -129.68 47.975 -136.75 50.5 C-135.43 51.16 -134.11 51.82 -132.75 52.5 C-135.06 53.16 -137.37 53.82 -139.75 54.5 C-139.75 53.84 -139.75 53.18 -139.75 52.5 C-142.39 53.16 -145.03 53.82 -147.75 54.5 C-147.75 55.16 -147.75 55.82 -147.75 56.5 C-149.47078041 57.3709379 -151.20206323 58.22114558 -152.9375 59.0625 C-153.90042969 59.53816406 -154.86335938 60.01382813 -155.85546875 60.50390625 C-159.06672482 61.60899437 -160.56354763 61.56031949 -163.75 60.5 C-167.49031914 57.55308189 -169.61154359 53.68050699 -171.75 49.5 C-172.22179687 48.59314453 -172.22179687 48.59314453 -172.703125 47.66796875 C-173.9418738 45.08348829 -174.72795926 42.80122338 -174.9375 39.9375 C-171.96236275 33.83063934 -164.84142452 30.81655796 -158.73242188 28.63085938 C-157.53456055 28.22577148 -157.53456055 28.22577148 -156.3125 27.8125 C-155.51779297 27.53083984 -154.72308594 27.24917969 -153.90429688 26.95898438 C-150.70828532 25.83296891 -147.50228512 24.74461534 -144.27978516 23.69677734 C-143.09521729 23.31126709 -143.09521729 23.31126709 -141.88671875 22.91796875 C-141.18119873 22.69262451 -140.47567871 22.46728027 -139.7487793 22.23510742 C-137.70916638 21.48498228 -135.8926187 20.56348413 -134 19.5 C-129.42952419 17.04822654 -124.58559128 16.34627558 -119.5078125 15.50390625 C-116.5189695 14.76400551 -116.5189695 14.76400551 -115.3671875 11.90234375 C-115.16351563 11.10957031 -114.95984375 10.31679688 -114.75 9.5 C-113.7290625 9.7165625 -113.7290625 9.7165625 -112.6875 9.9375 C-111.718125 10.123125 -110.74875 10.30875 -109.75 10.5 C-108.78964844 10.72171875 -107.82929688 10.9434375 -106.83984375 11.171875 C-101.2561031 11.9484701 -95.82600851 10.44274092 -90.375 9.3125 C-88.64540039 8.96783691 -88.64540039 8.96783691 -86.88085938 8.61621094 C-79.61288051 7.14922358 -72.39611549 5.51923229 -65.19799805 3.74389648 C-60.74786911 2.66699099 -56.42371814 2.03285069 -51.86328125 1.7109375 C-49.76586249 1.50158332 -47.90137222 1.06953028 -45.875 0.5 C-41.40286308 -0.73716902 -36.90583255 -0.96754963 -32.2890625 -1.25390625 C-29.75933502 -1.34581524 -29.75933502 -1.34581524 -27.75 -2.5 C-25.03586706 -2.76265803 -22.34534666 -2.96770104 -19.625 -3.125 C-18.89023437 -3.1765625 -18.15546875 -3.228125 -17.3984375 -3.28125 C-4.46122657 -4.05566051 -4.46122657 -4.05566051 0 0 Z " fill="#C9AB69" transform="translate(359.75,317.5)"/>
<path d="M0 0 C0 0.66 0 1.32 0 2 C0.9075 2.165 1.815 2.33 2.75 2.5 C11.77033494 5.07463001 21.19574715 12.64249103 28 19 C28 19.66 28 20.32 28 21 C28.56074219 21.21785156 29.12148438 21.43570313 29.69921875 21.66015625 C44.77844778 30.44143903 53.56268317 53.42530727 57.85766602 69.43725586 C59.39466142 75.56565332 60.74175756 81.67306027 61 88 C61.0515625 88.98484375 61.103125 89.9696875 61.15625 90.984375 C61.9483297 119.63125751 51.71096531 146.15874636 32.2109375 167.03125 C27.46655944 171.89868109 27.46655944 171.89868109 25 174 C24.34 174 23.68 174 23 174 C23 174.66 23 175.32 23 176 C20.80449274 177.68838456 18.62330584 179.23316622 16.3125 180.75 C15.63203613 181.19811035 14.95157227 181.6462207 14.25048828 182.10791016 C-8.95007583 197.06922343 -36.9383225 202.14785837 -64 197 C-73.3187354 194.6744137 -82.35565183 191.16209356 -91 187 C-91 186.34 -91 185.68 -91 185 C-91.73863281 184.72285156 -92.47726562 184.44570312 -93.23828125 184.16015625 C-112.77367528 175.95363288 -128.78289553 155.06640225 -136.87890625 135.9609375 C-147.40522028 108.1597318 -147.86952017 79.66251125 -136.0078125 52.203125 C-124.58256824 27.22700965 -103.84911423 8.68751204 -78.6875 -1.8125 C-52.06423124 -11.23203489 -26.24931556 -9.54177707 0 0 Z " fill="#CBAD6A" transform="translate(361,68)"/>
<path d="M0 0 C1.32 0 2.64 0 4 0 C3.0557297 6.20807494 1.98762195 12.03713415 0 18 C0 19.0725 0 20.145 0 21.25 C0 22.1575 0 23.065 0 24 C-0.66 24.66 -1.32 25.32 -2 26 C-2.04241723 28.33294775 -2.04092937 30.66702567 -2 33 C-2.33 33.99 -2.66 34.98 -3 36 C-3.22008052 37.72532263 -3.40503094 39.45534033 -3.5625 41.1875 C-3.68818359 42.53908203 -3.68818359 42.53908203 -3.81640625 43.91796875 C-3.87699219 44.60503906 -3.93757813 45.29210937 -4 46 C-4.66 46 -5.32 46 -6 46 C-6.77366453 52.70230249 -6.77366453 52.70230249 -6.875 59.4375 C-7.02428839 63.69221905 -8.07704648 67.32811671 -9.265625 71.3984375 C-10.06874417 74.24352987 -10.60419856 77.07106937 -11 80 C-12.66666667 80 -14.33333333 80 -16 80 C-16.33 80.66 -16.66 81.32 -17 82 C-18.3212756 82.37831162 -19.65801002 82.70343333 -21 83 C-22.53571783 83.60008927 -24.06260757 84.22305625 -25.58203125 84.86328125 C-30.86199038 87.00605579 -36.20434788 88.65221741 -41.6875 90.1875 C-42.58533203 90.44724609 -43.48316406 90.70699219 -44.40820312 90.97460938 C-48.29632445 92.07695586 -52.06328459 93.08057867 -56.08203125 93.55078125 C-57.04496094 93.69902344 -58.00789063 93.84726562 -59 94 C-59.33 94.66 -59.66 95.32 -60 96 C-62.3260857 96.38063221 -64.66055264 96.71269945 -67 97 C-67.99 97.495 -67.99 97.495 -69 98 C-71.74122471 98.12552999 -74.44602399 98.18518261 -77.1875 98.1875 C-77.93064453 98.19974609 -78.67378906 98.21199219 -79.43945312 98.22460938 C-85.74916669 98.24119933 -91.08679226 97.78843332 -95.875 93.3125 C-103.85116604 80.8790647 -98.13779503 58.83158084 -95.2175293 45.10888672 C-95.00136963 44.1242041 -94.78520996 43.13952148 -94.5625 42.125 C-94.35729736 41.1673877 -94.15209473 40.20977539 -93.94067383 39.22314453 C-93.73466553 38.32708496 -93.52865723 37.43102539 -93.31640625 36.5078125 C-93.13537354 35.71004395 -92.95434082 34.91227539 -92.76782227 34.09033203 C-91.88098609 31.67599456 -91.02115091 30.57714181 -89 29 C-86.2548959 28.15470018 -83.60501536 27.43929166 -80.8125 26.8125 C-80.06291016 26.63525391 -79.31332031 26.45800781 -78.54101562 26.27539062 C-76.69625181 25.84063737 -74.84839934 25.41902724 -73 25 C-75.31 25 -77.62 25 -80 25 C-80 24.34 -80 23.68 -80 23 C-77.12543719 22.35216876 -74.25038241 21.70667482 -71.375 21.0625 C-70.56675781 20.88009766 -69.75851563 20.69769531 -68.92578125 20.50976562 C-64.63101819 19.54955437 -60.35222151 18.66903081 -56 18 C-56 18.66 -56 19.32 -56 20 C-53.57202689 20 -51.37092995 19.49914315 -49 19 C-50.98 18.67 -52.96 18.34 -55 18 C-54.67 17.34 -54.34 16.68 -54 16 C-52.35 16 -50.7 16 -49 16 C-49 15.34 -49 14.68 -49 14 C-48.05125 14.020625 -47.1025 14.04125 -46.125 14.0625 C-43.09333717 14.22551826 -43.09333717 14.22551826 -41 13 C-40.34 13.33 -39.68 13.66 -39 14 C-39 13.01 -39 12.02 -39 11 C-36 10 -36 10 -33 10 C-32.505 10.99 -32.505 10.99 -32 12 C-31.34 12 -30.68 12 -30 12 C-30 11.34 -30 10.68 -30 10 C-29.34 10 -28.68 10 -28 10 C-28 9.34 -28 8.68 -28 8 C-19.738041 4.37129841 -19.738041 4.37129841 -15 6 C-15 5.01 -15 4.02 -15 3 C-11.7 3 -8.4 3 -5 3 C-5.495 2.01 -5.495 2.01 -6 1 C-4 1 -2 1 0 1 C0 0.67 0 0.34 0 0 Z " fill="#6A7082" transform="translate(316,452)"/>
<path d="M0 0 C0.99 0 1.98 0 3 0 C3.495 0.99 3.495 0.99 4 2 C11.67846322 1.43434519 19.34343208 0.8123221 27 0 C22.54052588 4.98483683 16.77762566 8.47425187 11.29101562 12.22265625 C10.50017578 12.77824219 9.70933594 13.33382813 8.89453125 13.90625 C7.80942261 14.65358398 7.80942261 14.65358398 6.70239258 15.41601562 C4.72045097 17.26010528 4.33460437 18.34658733 4 21 C4.27051926 23.81127863 4.93505941 26.38395028 6 29 C7.64678152 30.53253634 7.64678152 30.53253634 10 31 C11.85625 31.556875 11.85625 31.556875 13.75 32.125 C14.8225 32.41375 15.895 32.7025 17 33 C17.52207031 32.45472656 18.04414063 31.90945313 18.58203125 31.34765625 C24.31191852 25.47728138 30.24153979 19.68660437 37 15 C37.99 15 38.98 15 40 15 C40 14.34 40 13.68 40 13 C46.75 9 46.75 9 49 9 C48.34 11.97 47.68 14.94 47 18 C46.34 18 45.68 18 45 18 C45 20.97 45 23.94 45 27 C44.34 27 43.68 27 43 27 C43.2784375 27.9590625 43.2784375 27.9590625 43.5625 28.9375 C43.7790625 29.9584375 43.7790625 29.9584375 44 31 C43.505 31.495 43.505 31.495 43 32 C42.64791019 33.49120388 42.34374528 34.99382692 42.0625 36.5 C41.40572654 39.93090616 40.71367696 43.34408915 39.9375 46.75 C39.17026061 50.15122657 38.53038375 53.5525056 38 57 C37.34 57 36.68 57 36 57 C36.309375 58.0828125 36.309375 58.0828125 36.625 59.1875 C37.0729384 62.547038 36.29592157 63.90418735 35 67 C34.77666065 68.36963527 34.59130207 69.7458241 34.4375 71.125 C33.92315482 75.68062871 32.4451996 79.6644012 31 84 C30.27635254 84.13051758 29.55270508 84.26103516 28.80712891 84.39550781 C14.46818706 86.99101765 0.19716789 89.71600864 -14 93 C-14.80920898 93.16064941 -15.61841797 93.32129883 -16.45214844 93.48681641 C-17.26973633 93.6522998 -18.08732422 93.8177832 -18.9296875 93.98828125 C-19.68233887 94.13434814 -20.43499023 94.28041504 -21.21044922 94.4309082 C-21.80100098 94.6187085 -22.39155273 94.80650879 -23 95 C-23.33 95.66 -23.66 96.32 -24 97 C-24 96.34 -24 95.68 -24 95 C-25.4589426 95.47730838 -26.91713496 95.95691042 -28.375 96.4375 C-29.18710937 96.70433594 -29.99921875 96.97117187 -30.8359375 97.24609375 C-33.01031799 97.95179729 -33.01031799 97.95179729 -35 99 C-36.7015625 99.185625 -36.7015625 99.185625 -38.4375 99.375 C-42.97114748 99.8815064 -47.2145356 101.09144985 -51.58203125 102.37890625 C-54 103 -54 103 -57 103 C-56.47882641 96.7704427 -55.39899607 91.37760261 -53.3125 85.5 C-53.04775879 84.73171875 -52.78301758 83.9634375 -52.51025391 83.171875 C-51.68247639 80.77801868 -50.8415505 78.3890439 -50 76 C-49.46936513 74.46898792 -48.93940272 72.93774258 -48.41015625 71.40625 C-46.34825106 65.47119231 -44.2735823 59.55906651 -41.875 53.75 C-39.49530457 47.97073966 -37.76504291 41.98987967 -36 36 C-35.01 36 -34.02 36 -33 36 C-32.67 35.34 -32.34 34.68 -32 34 C-32.66 34 -33.32 34 -34 34 C-33.57781184 32.3501725 -33.13675575 30.70516335 -32.6875 29.0625 C-32.44386719 28.14597656 -32.20023437 27.22945313 -31.94921875 26.28515625 C-31.63597656 25.53105469 -31.32273437 24.77695312 -31 24 C-30.01 23.67 -29.02 23.34 -28 23 C-28.3403125 21.9171875 -28.3403125 21.9171875 -28.6875 20.8125 C-29.08977302 17.19204286 -28.20477292 15.83470803 -26 13 C-25.01 12.67 -24.02 12.34 -23 12 C-23 11.01 -23 10.02 -23 9 C-22.00097656 8.80664062 -21.00195312 8.61328125 -19.97265625 8.4140625 C-18.68230469 8.15367187 -17.39195312 7.89328125 -16.0625 7.625 C-14.77472656 7.36976563 -13.48695313 7.11453125 -12.16015625 6.8515625 C-11.11730469 6.57054687 -10.07445312 6.28953125 -9 6 C-8.67 5.34 -8.34 4.68 -8 4 C-6.34385343 3.61781233 -4.67542976 3.28604898 -3 3 C-2.34 2.67 -1.68 2.34 -1 2 C-1 2.66 -1 3.32 -1 4 C-0.34 3.34 0.32 2.68 1 2 C0.505 1.01 0.505 1.01 0 0 Z " fill="#6D7385" transform="translate(293,345)"/>
<path d="M0 0 C0.89807373 -0.02586182 1.79614746 -0.05172363 2.72143555 -0.07836914 C9.30742363 -0.09718105 14.71504818 1.30187627 20.5625 4.375 C22.5625 6.375 22.5625 6.375 22.75 8.37109375 C21.82565488 20.40683749 14.99243751 29.15964272 6.5625 37.375 C2.94407895 40.375 2.94407895 40.375 0.5625 40.375 C0.335625 41.15875 0.10875 41.9425 -0.125 42.75 C-1.79913042 46.09826083 -3.01345327 46.1009361 -6.4375 47.375 C-7.56519513 48.50269513 -8.68880735 49.63524227 -9.77734375 50.80078125 C-19.87422457 60.375 -19.87422457 60.375 -24.4375 60.375 C-24.4375 61.035 -24.4375 61.695 -24.4375 62.375 C-29.0575 64.685 -33.6775 66.995 -38.4375 69.375 C-38.1075 70.035 -37.7775 70.695 -37.4375 71.375 C-38.32501953 71.53935547 -38.32501953 71.53935547 -39.23046875 71.70703125 C-40.02066406 71.86558594 -40.81085938 72.02414062 -41.625 72.1875 C-42.40230469 72.33832031 -43.17960937 72.48914063 -43.98046875 72.64453125 C-46.50706236 73.28408011 -46.50706236 73.28408011 -48.77294922 74.78149414 C-53.08624554 77.36101449 -57.72937184 79.10631857 -62.375 81 C-63.35146484 81.40734375 -64.32792969 81.8146875 -65.33398438 82.234375 C-70.01876721 84.15275387 -74.35087076 85.87580457 -79.4375 86.375 C-79.4375 85.385 -79.4375 84.395 -79.4375 83.375 C-78.4475 82.88 -78.4475 82.88 -77.4375 82.375 C-78.0975 81.715 -78.7575 81.055 -79.4375 80.375 C-78.4475 79.88 -78.4475 79.88 -77.4375 79.375 C-78.4275 79.045 -79.4175 78.715 -80.4375 78.375 C-80.39625 77.59125 -80.355 76.8075 -80.3125 76 C-80.15021266 73.21383881 -80.15021266 73.21383881 -82.4375 71.375 C-85.02104218 71.20812552 -85.02104218 71.20812552 -87.4375 71.375 C-87.67492822 65.55800866 -87.07380379 60.99979428 -85.4375 55.375 C-85.27567306 52.68105747 -85.3426798 50.07737582 -85.4375 47.375 C-84.7775 47.375 -84.1175 47.375 -83.4375 47.375 C-82.9425 38.465 -82.9425 38.465 -82.4375 29.375 C-81.7775 29.375 -81.1175 29.375 -80.4375 29.375 C-80.1075 27.395 -79.7775 25.415 -79.4375 23.375 C-78.509375 23.684375 -77.58125 23.99375 -76.625 24.3125 C-71.61745164 25.01355677 -68.53806345 22.2409533 -64.5703125 19.5 C-61.05839732 17.11785305 -57.44559635 15.01741711 -53.75 12.9375 C-53.12536865 12.58373291 -52.5007373 12.22996582 -51.85717773 11.86547852 C-50.38535827 11.03282802 -48.91164171 10.2035322 -47.4375 9.375 C-47.4375 8.385 -47.4375 7.395 -47.4375 6.375 C-46.7775 6.375 -46.1175 6.375 -45.4375 6.375 C-44.7775 7.035 -44.1175 7.695 -43.4375 8.375 C-41.12374595 7.56593245 -38.81151052 6.75293083 -36.5 5.9375 C-35.5109668 5.59235352 -35.5109668 5.59235352 -34.50195312 5.24023438 C-31.21421378 4.25535408 -31.21421378 4.25535408 -28.4375 2.375 C-19.03584705 0.72156424 -9.53458311 0.13735782 0 0 Z " fill="#6A7183" transform="translate(414.4375,454.625)"/>
<path d="M0 0 C1.15338867 -0.01498535 1.15338867 -0.01498535 2.33007812 -0.03027344 C7.75602544 0.05251129 11.88822551 1.30596487 16.875 3.4375 C17.63451569 13.12132509 14.27422098 21.92596375 9.875 30.4375 C9.18971955 32.09660004 8.51608137 33.76082564 7.875 35.4375 C6.885 35.4375 5.895 35.4375 4.875 35.4375 C4.875 36.4275 4.875 37.4175 4.875 38.4375 C3.885 38.9325 3.885 38.9325 2.875 39.4375 C2.61332031 40.30246094 2.35164063 41.16742188 2.08203125 42.05859375 C0.58651968 46.24505818 -1.65229455 49.08599651 -4.4375 52.5 C-4.91123047 53.09876953 -5.38496094 53.69753906 -5.87304688 54.31445312 C-8.76068776 57.92104154 -11.83111382 61.19127455 -15.125 64.4375 C-17.41753296 67.05091025 -19.68446267 69.68394154 -21.94140625 72.328125 C-24.11603626 74.42884093 -25.1765569 75.08983777 -28.125 75.4375 C-28.2178125 76.613125 -28.2178125 76.613125 -28.3125 77.8125 C-28.580625 78.67875 -28.84875 79.545 -29.125 80.4375 C-30.300625 80.8396875 -30.300625 80.8396875 -31.5 81.25 C-34.22373102 82.13621326 -34.22373102 82.13621326 -34.9453125 84.2265625 C-35.28175781 85.29003906 -35.28175781 85.29003906 -35.625 86.375 C-36.87390003 90.25426488 -36.87390003 90.25426488 -39.4375 92.125 C-40.324375 92.558125 -41.21125 92.99125 -42.125 93.4375 C-44.95226441 95.59624869 -47.60909711 97.92159711 -50.125 100.4375 C-51.24841797 101.32695312 -51.24841797 101.32695312 -52.39453125 102.234375 C-56.34610928 105.42277273 -59.99439106 108.92142235 -63.69921875 112.390625 C-66.125 114.4375 -66.125 114.4375 -68.125 114.4375 C-67.63 113.261875 -67.63 113.261875 -67.125 112.0625 C-66.00633489 109.59417503 -66.00633489 109.59417503 -66.125 107.4375 C-65.465 107.4375 -64.805 107.4375 -64.125 107.4375 C-64.310625 106.839375 -64.49625 106.24125 -64.6875 105.625 C-65.125 103.4375 -65.125 103.4375 -64.125 100.4375 C-64.0115625 99.22191406 -63.898125 98.00632812 -63.78125 96.75390625 C-63.0318685 89.51915478 -61.23410664 82.45683747 -59.625 75.375 C-59.14014829 73.23579165 -58.65684276 71.09628815 -58.17810059 68.95570374 C-57.74426767 67.01641123 -57.30492254 65.07835422 -56.86523438 63.14038086 C-56.32992745 60.46261038 -55.91817731 57.90340649 -55.61132812 55.20141602 C-55.16296196 51.731305 -54.25477816 48.99234237 -52.9453125 45.76953125 C-51.92381307 42.86555429 -51.28386801 39.94401874 -50.625 36.9375 C-49.66290235 32.56020754 -48.5114358 28.54204494 -46.80078125 24.41015625 C-45.98360417 22.02475495 -45.63778123 19.67727294 -45.25 17.1875 C-44.62672812 13.97789521 -44.29215889 12.64240445 -42.1875 10.0625 C-29.41267369 3.28402073 -14.39453899 0.10776054 0 0 Z " fill="#6E7385" transform="translate(408.125,333.5625)"/>
<path d="M0 0 C3.5 0.5 3.5 0.5 5.109375 2.16015625 C6.72571258 4.87978043 7.44822943 7.37791324 8.25 10.4375 C12.64445055 25.21280356 20.3122796 36.60910539 33.8828125 44.21875 C48.63583004 51.44112277 63.80721403 52.56466442 79.5 47.5 C92.56601757 42.41696075 102.08260012 33.97463957 108.5 21.5 C110.3406014 17.22158079 111.9458409 12.88889874 113.5 8.5 C115.23825503 3.76174497 115.23825503 3.76174497 117.5 1.5 C120.9375 1.125 120.9375 1.125 124.5 1.5 C126.50117833 3.52386742 127.41994068 4.80948836 127.75 7.65625 C126.16119668 22.55128112 117.64516897 37.81253414 106.171875 47.45703125 C88.40161088 61.04452852 70.46094716 65.56906831 48.30957031 63.27294922 C40.11774287 62.11465342 32.81705199 59.27798807 25.5 55.5 C25.5 54.84 25.5 54.18 25.5 53.5 C24.76265625 53.22929687 24.0253125 52.95859375 23.265625 52.6796875 C9.29313269 46.71966959 1.17398943 31.87552634 -4.5 18.5 C-6.28137886 12.89459453 -7.89241186 7.69435662 -5.4375 2.0625 C-3.5 0.5 -3.5 0.5 0 0 Z " fill="#6D7384" transform="translate(258.5,172.5)"/>
<path d="M0 0 C47.52 0 95.04 0 144 0 C144 1.65 144 3.3 144 5 C98.13 5 52.26 5 5 5 C5 72.98 5 140.96 5 211 C3.35 211 1.7 211 0 211 C0 141.37 0 71.74 0 0 Z " fill="#946B41" transform="translate(14,19)"/>
<path d="M0 0 C1.65 0 3.3 0 5 0 C5 68.31 5 136.62 5 207 C50.87 207 96.74 207 144 207 C144 208.32 144 209.64 144 211 C96.48 211 48.96 211 0 211 C0 141.37 0 71.74 0 0 Z " fill="#94693F" transform="translate(14,418)"/>
<path d="M0 0 C47.52 0 95.04 0 144 0 C144 69.96 144 139.92 144 212 C142.68 212 141.36 212 140 212 C140 143.69 140 75.38 140 5 C93.8 5 47.6 5 0 5 C0 3.35 0 1.7 0 0 Z " fill="#966C4C" transform="translate(480,19)"/>
<path d="M0 0 C1.32 0 2.64 0 4 0 C4 69.3 4 138.6 4 210 C-43.52 210 -91.04 210 -140 210 C-140 209.01 -140 208.02 -140 207 C-93.8 207 -47.6 207 0 207 C0 138.69 0 70.38 0 0 Z " fill="#976A47" transform="translate(620,418)"/>
<path d="M0 0 C4.21029329 1.35330856 5.8609566 2.58114172 8.5 6.125 C10.36033739 12.07548684 10.80945357 17.47955604 10.75 23.6875 C10.75773437 24.49896484 10.76546875 25.31042969 10.7734375 26.14648438 C10.74788811 34.06040944 9.33807582 41.28692418 3.5 47.125 C0.49817766 47.47521261 -1.5952527 47.7004688 -4.5 47.125 C-9.0185347 42.99938137 -11.20904957 38.7078467 -11.70507812 32.59960938 C-11.8050772 29.62616759 -11.8219446 26.6625496 -11.8125 23.6875 C-11.82861328 22.67623047 -11.84472656 21.66496094 -11.86132812 20.62304688 C-11.86626051 13.06170158 -10.86035372 8.27213829 -6.25 2.125 C-3.5 0.125 -3.5 0.125 0 0 Z " fill="#6A7183" transform="translate(351.5,107.875)"/>
<path d="M0 0 C4.40247785 3.3263166 6.01809267 6.70229634 7 12 C7.27058843 15.33877416 7.27998327 18.65186781 7.25 22 C7.25773437 22.86367187 7.26546875 23.72734375 7.2734375 24.6171875 C7.24876218 32.73536747 6.04523604 39.95476396 0 46 C-3.00182234 46.35021261 -5.0952527 46.5754688 -8 46 C-12.51173901 41.88058612 -14.68087108 37.59706902 -15.22119141 31.50683594 C-15.34145274 28.56427135 -15.37122685 25.63244705 -15.375 22.6875 C-15.39949219 21.69298828 -15.42398437 20.69847656 -15.44921875 19.67382812 C-15.47895055 12.12690519 -14.18743171 5.7369889 -9.1875 -0.125 C-5.74991238 -1.50003505 -3.52595117 -0.98974068 0 0 Z " fill="#6A7083" transform="translate(290,109)"/>
<path d="M0 0 C0.495 1.485 0.495 1.485 1 3 C0.34 3.66 -0.32 4.32 -1 5 C-1.66 5.99 -2.32 6.98 -3 8 C-3.66 8 -4.32 8 -5 8 C-5.66 9.65 -6.32 11.3 -7 13 C-8.32 12.67 -9.64 12.34 -11 12 C-11 12.66 -11 13.32 -11 14 C-10.34 14.33 -9.68 14.66 -9 15 C-9.639375 15.103125 -10.27875 15.20625 -10.9375 15.3125 C-11.618125 15.539375 -12.29875 15.76625 -13 16 C-13.33 16.99 -13.66 17.98 -14 19 C-14.639375 19.309375 -15.27875 19.61875 -15.9375 19.9375 C-18.45468915 21.2342338 -18.96886948 22.4221737 -20 25 C-20.99 25 -21.98 25 -23 25 C-23.33 25.66 -23.66 26.32 -24 27 C-24.33 26.01 -24.66 25.02 -25 24 C-25.556875 24.763125 -26.11375 25.52625 -26.6875 26.3125 C-28.98412874 28.98155503 -30.87247757 30.43623879 -34 32 C-34.66 32 -35.32 32 -36 32 C-36 31.34 -36 30.68 -36 30 C-33 28 -33 28 -30 28 C-29.938125 27.46375 -29.87625 26.9275 -29.8125 26.375 C-27.96081192 20.9623733 -22.95335578 16.95335578 -19 13 C-18.67 12.34 -18.34 11.68 -18 11 C-17.34 11 -16.68 11 -16 11 C-15.67 10.01 -15.34 9.02 -15 8 C-13.12382302 6.15500602 -11.07262391 4.6316401 -9 3 C-8.01 3.99 -7.02 4.98 -6 6 C-5.3503125 4.7934375 -5.3503125 4.7934375 -4.6875 3.5625 C-3 1 -3 1 0 0 Z " fill="#A38D6D" transform="translate(413,401)"/>
<path d="M0 0 C0.33 0.99 0.66 1.98 1 3 C0.34 3.66 -0.32 4.32 -1 5 C-1.99 6.485 -1.99 6.485 -3 8 C-3.66 8 -4.32 8 -5 8 C-5.66 9.65 -6.32 11.3 -7 13 C-8.32 12.67 -9.64 12.34 -11 12 C-11 12.66 -11 13.32 -11 14 C-10.34 14.33 -9.68 14.66 -9 15 C-11.65228812 16.07525194 -14.28368454 17.09456151 -17 18 C-16.41892368 14.2397015 -15.34800504 11.46964968 -13.4375 8.1875 C-12.98246094 7.39730469 -12.52742188 6.60710937 -12.05859375 5.79296875 C-11.53458984 4.90544922 -11.53458984 4.90544922 -11 4 C-10.01 4 -9.02 4 -8 4 C-7.34 4.66 -6.68 5.32 -6 6 C-5.3503125 4.7934375 -5.3503125 4.7934375 -4.6875 3.5625 C-3 1 -3 1 0 0 Z " fill="#AC8E63" transform="translate(413,401)"/>
<path d="M0 0 C-7.49621782 3.78313797 -14.74187152 7.28604881 -23 9 C-23.33 8.01 -23.66 7.02 -24 6 C-23.360625 5.71125 -22.72125 5.4225 -22.0625 5.125 C-19.84793921 4.17176549 -19.84793921 4.17176549 -19 2 C-16.015625 1.3671875 -16.015625 1.3671875 -12.25 0.875 C-11.01765625 0.70742188 -9.7853125 0.53984375 -8.515625 0.3671875 C-5.63453634 0.0662738 -2.89078586 -0.07723474 0 0 Z " fill="#AA9772" transform="translate(397,453)"/>
<path d="M0 0 C-0.66 1.65 -1.32 3.3 -2 5 C-2.99 5 -3.98 5 -5 5 C-5.33 5.66 -5.66 6.32 -6 7 C-6.33 6.01 -6.66 5.02 -7 4 C-7.556875 4.763125 -8.11375 5.52625 -8.6875 6.3125 C-10.98412874 8.98155503 -12.87247757 10.43623879 -16 12 C-16.66 12 -17.32 12 -18 12 C-18 11.34 -18 10.68 -18 10 C-15 8 -15 8 -12 8 C-11.8453125 7.1028125 -11.8453125 7.1028125 -11.6875 6.1875 C-10.89363064 3.66155205 -10.04427591 2.65114593 -8 1 C-5.07175348 0.02391783 -3.04386724 -0.08226668 0 0 Z " fill="#B89A67" transform="translate(395,421)"/>
<path d="M0 0 C1.24523437 0.01804687 2.49046875 0.03609375 3.7734375 0.0546875 C5.18496094 0.08949219 5.18496094 0.08949219 6.625 0.125 C3.31501895 2.33165404 0.80478564 2.90762095 -3.0625 3.75 C-4.24199219 4.01039063 -5.42148438 4.27078125 -6.63671875 4.5390625 C-7.99216797 4.82910156 -7.99216797 4.82910156 -9.375 5.125 C-9.375 4.465 -9.375 3.805 -9.375 3.125 C-10.365 3.455 -11.355 3.785 -12.375 4.125 C-12.705 3.465 -13.035 2.805 -13.375 2.125 C-8.75130977 0.31820413 -4.94971347 -0.09339082 0 0 Z " fill="#B3925A" transform="translate(239.375,475.875)"/>
<path d="M0 0 C0.66 0 1.32 0 2 0 C2.33 2.64 2.66 5.28 3 8 C1.02 8 -0.96 8 -3 8 C-3 6.35 -3 4.7 -3 3 C-2.01 2.67 -1.02 2.34 0 2 C0 1.34 0 0.68 0 0 Z " fill="#9F9D87" transform="translate(330,543)"/>
<path d="M0 0 C0.33 0.99 0.66 1.98 1 3 C0.34 3.66 -0.32 4.32 -1 5 C-1.99 6.485 -1.99 6.485 -3 8 C-3.66 8 -4.32 8 -5 8 C-5.33 8.66 -5.66 9.32 -6 10 C-6.99 9.34 -7.98 8.68 -9 8 C-8.195625 7.21625 -7.39125 6.4325 -6.5625 5.625 C-4.01309583 3.28017144 -4.01309583 3.28017144 -3 1 C-2.01 0.67 -1.02 0.34 0 0 Z " fill="#988168" transform="translate(413,401)"/>
<path d="M0 0 C0 0.66 0 1.32 0 2 C0.66 2.33 1.32 2.66 2 3 C1.01 3.99 0.02 4.98 -1 6 C-1.33 5.01 -1.66 4.02 -2 3 C-2.99 2.34 -3.98 1.68 -5 1 C-3 0 -3 0 0 0 Z M-4 6 C-3.01 6.33 -2.02 6.66 -1 7 C-1.99 7.33 -2.98 7.66 -4 8 C-4 8.66 -4 9.32 -4 10 C-4.99 10.33 -5.98 10.66 -7 11 C-6.625 9.0625 -6.625 9.0625 -6 7 C-5.34 6.67 -4.68 6.34 -4 6 Z " fill="#E2D38A" transform="translate(334,535)"/>
<path d="M0 0 C0.66 0.66 1.32 1.32 2 2 C-4.90697674 10.95348837 -4.90697674 10.95348837 -9 13 C-6.58459921 7.98339837 -4.10495904 3.82185842 0 0 Z " fill="#83766F" transform="translate(427,386)"/>
<path d="M0 0 C2.475 0.99 2.475 0.99 5 2 C5 2.99 5 3.98 5 5 C2.09399739 6.25664978 0.20395416 7 -3 7 C-3 5.68 -3 4.36 -3 3 C-2.34 3 -1.68 3 -1 3 C-1 3.66 -1 4.32 -1 5 C-0.34 4.34 0.32 3.68 1 3 C0.67 2.01 0.34 1.02 0 0 Z " fill="#828484" transform="translate(328,536)"/>
<path d="M0 0 C0.90105469 0.19464844 1.80210937 0.38929688 2.73046875 0.58984375 C3.41753906 0.74582031 4.10460937 0.90179688 4.8125 1.0625 C1.95771674 2.96568884 0.39308692 3.5244099 -2.875 4.1875 C-3.68324219 4.35507812 -4.49148438 4.52265625 -5.32421875 4.6953125 C-5.93910156 4.81648438 -6.55398438 4.93765625 -7.1875 5.0625 C-7.1875 4.4025 -7.1875 3.7425 -7.1875 3.0625 C-6.5275 3.0625 -5.8675 3.0625 -5.1875 3.0625 C-5.1875 2.4025 -5.1875 1.7425 -5.1875 1.0625 C-6.1775 0.7325 -7.1675 0.4025 -8.1875 0.0625 C-4.80475734 -1.06508089 -3.41971777 -0.75500262 0 0 Z " fill="#AB9A72" transform="translate(265.1875,468.9375)"/>
<path d="M0 0 C0.33 0.66 0.66 1.32 1 2 C-1.52103709 6.20172849 -3.52669159 8.88106444 -8 11 C-8.66 11 -9.32 11 -10 11 C-10 10.34 -10 9.68 -10 9 C-7 7 -7 7 -4 7 C-3.8453125 6.1028125 -3.8453125 6.1028125 -3.6875 5.1875 C-2.91123545 2.71756736 -1.92911079 1.67748765 0 0 Z " fill="#8E867A" transform="translate(387,422)"/>
<path d="M0 0 C0.99 0.33 1.98 0.66 3 1 C1.625 2.5 1.625 2.5 0 4 C-0.66 4 -1.32 4 -2 4 C-2.33 4.99 -2.66 5.98 -3 7 C-5.0625 8.6875 -5.0625 8.6875 -7 10 C-6.42424336 6.64749299 -5.40693737 5.06181371 -2.9375 2.75 C-2.38964844 2.22921875 -1.84179688 1.7084375 -1.27734375 1.171875 C-0.64505859 0.59179688 -0.64505859 0.59179688 0 0 Z " fill="#C1B17F" transform="translate(355,435)"/>
<path d="M0 0 C0.33 0.99 0.66 1.98 1 3 C-0.375 5.5625 -0.375 5.5625 -2 8 C-2.33 8.66 -2.66 9.32 -3 10 C-3.66 9.67 -4.32 9.34 -5 9 C-4.7452486 7.68428397 -4.47065859 6.37239624 -4.1875 5.0625 C-4.03667969 4.33160156 -3.88585937 3.60070312 -3.73046875 2.84765625 C-3.48941406 2.23792969 -3.24835938 1.62820313 -3 1 C-2.01 0.67 -1.02 0.34 0 0 Z " fill="#918674" transform="translate(252,403)"/>
<path d="M0 0 C0.99 0 1.98 0 3 0 C3 1.98 3 3.96 3 6 C1.68 5.67 0.36 5.34 -1 5 C-0.67 3.35 -0.34 1.7 0 0 Z " fill="#8C7F6F" transform="translate(233,426)"/>
<path d="M0 0 C0.66 0.33 1.32 0.66 2 1 C0.41641358 4.16717283 -0.45263699 5.73268318 -3.6875 7.3125 C-4.450625 7.539375 -5.21375 7.76625 -6 8 C-4.625 5.5 -4.625 5.5 -3 3 C-2.34 3 -1.68 3 -1 3 C-0.67 2.01 -0.34 1.02 0 0 Z " fill="#837E7A" transform="translate(398,409)"/>
<path d="M0 0 C0 0.99 0 1.98 0 3 C-1.32 3.33 -2.64 3.66 -4 4 C-4 3.34 -4 2.68 -4 2 C-4.99 2.33 -5.98 2.66 -7 3 C-7.33 2.34 -7.66 1.68 -8 1 C-5.29120665 -0.35439668 -2.99066732 -0.06501451 0 0 Z " fill="#8F7E69" transform="translate(234,477)"/>
<path d="M0 0 C1.65 0.33 3.3 0.66 5 1 C5 1.99 5 2.98 5 4 C4.34 4.66 3.68 5.32 3 6 C2.34 5.67 1.68 5.34 1 5 C1 4.34 1 3.68 1 3 C-0.32 2.67 -1.64 2.34 -3 2 C-2.01 2 -1.02 2 0 2 C0 1.34 0 0.68 0 0 Z " fill="#A29E85" transform="translate(333,532)"/>
</svg>
